<?xml version="1.0" encoding="UTF-8" standalone="no"?>
<!DOCTYPE svg PUBLIC "-//W3C//DTD SVG 20010904//EN"
              "http://www.w3.org/TR/2001/REC-SVG-20010904/DTD/svg10.dtd">

<svg xmlns="http://www.w3.org/2000/svg"
     width="5.68889in" height="5.68889in"
     viewBox="0 0 512 512">
  <path id="Ruta importada"
        fill="none" stroke="black" stroke-width="1"
        d="M 418.91,415.58
           C 396.88,415.58 379.01,433.45 379.01,455.48
             379.01,477.51 396.88,495.38 418.91,495.38
             440.94,495.38 458.81,477.51 458.81,455.48
             458.81,433.45 440.94,415.58 418.91,415.58 Z
           M 179.53,415.58
           C 157.50,415.58 139.64,433.45 139.64,455.48
             139.64,477.51 157.50,495.38 179.53,495.38
             201.57,495.38 219.43,477.51 219.43,455.48
             219.43,433.45 201.57,415.58 179.53,415.58 Z
           M 511.73,100.19
           C 511.73,100.19 485.14,286.37 485.14,286.37
             483.27,299.46 472.05,309.19 458.81,309.19
             458.81,309.19 157.75,309.19 157.75,309.19
             157.75,309.19 162.16,335.79 162.16,335.79
             162.16,335.79 432.21,335.79 432.21,335.79
             446.92,335.79 458.81,347.68 458.81,362.39
             458.81,377.10 446.92,388.99 432.21,388.99
             432.21,388.99 139.64,388.99 139.61,388.99
             136.18,388.99 132.93,388.24 129.85,386.99
             128.76,386.57 127.88,385.82 126.87,385.26
             125.06,384.25 123.28,383.24 121.74,381.81
             120.78,380.90 120.03,379.86 119.21,378.83
             118.01,377.31 116.87,375.82 116.02,374.07
             115.35,372.79 115.01,371.46 114.58,370.05
             114.21,368.93 113.60,367.95 113.38,366.75
             113.38,366.75 63.91,69.82 63.91,69.82
             63.91,69.82 26.60,69.82 26.60,69.82
             11.89,69.82 0.00,57.93 0.00,43.22
             0.00,28.51 11.89,16.62 26.60,16.62
             26.60,16.62 86.44,16.62 86.44,16.62
             99.45,16.62 110.54,26.04 112.67,38.86
             112.67,38.86 117.85,69.82 117.85,69.82
             117.85,69.82 485.40,69.82 485.40,69.82
             493.12,69.82 500.43,73.17 505.51,78.99
             510.54,84.79 512.82,92.53 511.73,100.19 Z
           M 352.42,123.01
           C 352.42,123.01 352.42,176.21 352.42,176.21
             352.42,176.21 447.16,176.21 447.16,176.21
             447.16,176.21 454.74,123.01 454.74,123.01
             454.74,123.01 352.42,123.01 352.42,123.01 Z
           M 246.03,123.01
           C 246.03,123.01 246.03,176.21 246.03,176.21
             246.03,176.21 325.82,176.21 325.82,176.21
             325.82,176.21 325.82,123.01 325.82,123.01
             325.82,123.01 246.03,123.01 246.03,123.01 Z
           M 325.82,202.81
           C 325.82,202.81 246.03,202.81 246.03,202.81
             246.03,202.81 246.03,256.00 246.03,256.00
             246.03,256.00 325.82,256.00 325.82,256.00
             325.82,256.00 325.82,202.81 325.82,202.81
             325.82,202.81 325.82,202.81 325.82,202.81 Z
           M 219.43,123.01
           C 219.43,123.01 126.71,123.01 126.71,123.01
             126.71,123.01 135.70,177.01 135.70,177.01
             136.95,176.61 138.23,176.21 139.64,176.21
             139.64,176.21 219.43,176.21 219.43,176.21
             219.43,176.21 219.43,123.01 219.43,123.01
             219.43,123.01 219.43,123.01 219.43,123.01 Z
           M 148.87,256.00
           C 148.87,256.00 219.43,256.00 219.43,256.00
             219.43,256.00 219.43,202.81 219.43,202.81
             219.43,202.81 140.01,202.81 140.01,202.81
             140.01,202.81 148.87,256.00 148.87,256.00 Z
           M 435.75,256.00
           C 435.75,256.00 443.33,202.81 443.33,202.81
             443.33,202.81 352.42,202.81 352.42,202.81
             352.42,202.81 352.42,256.00 352.42,256.00
             352.42,256.00 435.75,256.00 435.75,256.00 Z" />
</svg>
